  0
SECTION
  2
HEADER
  9
$ACADVER
  1
AC1009
  9
$INSBASE
 10
0.0
 20
0.0
 30
0.0
  9
$EXTMIN
 10
0.0
 20
0.0
 30
0.0
  9
$EXTMAX
 10
171.5999999999999091
 20
511.5000000000001137
 30
0.0
  9
$LIMMIN
 10
0.0
 20
0.0
  9
$LIMMAX
 10
171.5999999999999091
 20
511.5000000000001137
  9
$ORTHOMODE
 70
     0
  9
$REGENMODE
 70
     1
  9
$FILLMODE
 70
     1
  9
$QTEXTMODE
 70
     0
  9
$MIRRTEXT
 70
     0
  9
$DRAGMODE
 70
     2
  9
$LTSCALE
 40
1.0
  9
$OSMODE
 70
     0
  9
$ATTMODE
 70
     1
  9
$TEXTSIZE
 40
0.2
  9
$TRACEWID
 40
0.05
  9
$TEXTSTYLE
  7
STANDARD
  9
$CLAYER
  8
0
  9
$CELTYPE
  6
BYLAYER
  9
$CECOLOR
 62
   256
  9
$DIMSCALE
 40
1.0
  9
$DIMASZ
 40
0.18
  9
$DIMEXO
 40
0.0625
  9
$DIMDLI
 40
0.38
  9
$DIMRND
 40
0.0
  9
$DIMDLE
 40
0.0
  9
$DIMEXE
 40
0.18
  9
$DIMTP
 40
0.0
  9
$DIMTM
 40
0.0
  9
$DIMTXT
 40
0.18
  9
$DIMCEN
 40
0.09
  9
$DIMTSZ
 40
0.0
  9
$DIMTOL
 70
     0
  9
$DIMLIM
 70
     0
  9
$DIMTIH
 70
     1
  9
$DIMTOH
 70
     1
  9
$DIMSE1
 70
     0
  9
$DIMSE2
 70
     0
  9
$DIMTAD
 70
     0
  9
$DIMZIN
 70
     0
  9
$DIMBLK
  1

  9
$DIMASO
 70
     1
  9
$DIMSHO
 70
     1
  9
$DIMPOST
  1

  9
$DIMAPOST
  1

  9
$DIMALT
 70
     0
  9
$DIMALTD
 70
     2
  9
$DIMALTF
 40
25.3999999999999986
  9
$DIMLFAC
 40
1.0
  9
$DIMTOFL
 70
     0
  9
$DIMTVP
 40
0.0
  9
$DIMTIX
 70
     0
  9
$DIMSOXD
 70
     0
  9
$DIMSAH
 70
     0
  9
$DIMBLK1
  1

  9
$DIMBLK2
  1

  9
$DIMSTYLE
  2
STANDARD
  9
$DIMCLRD
 70
     0
  9
$DIMCLRE
 70
     0
  9
$DIMCLRT
 70
     0
  9
$DIMTFAC
 40
1.0
  9
$DIMGAP
 40
0.09
  9
$LUNITS
 70
     2
  9
$LUPREC
 70
     4
  9
$SKETCHINC
 40
0.1
  9
$FILLETRAD
 40
0.0
  9
$AUNITS
 70
     0
  9
$AUPREC
 70
     0
  9
$MENU
  1
.
  9
$ELEVATION
 40
0.0
  9
$PELEVATION
 40
0.0
  9
$THICKNESS
 40
0.0
  9
$LIMCHECK
 70
     0
  9
$BLIPMODE
 70
     0
  9
$CHAMFERA
 40
0.0
  9
$CHAMFERB
 40
0.0
  9
$SKPOLY
 70
     0
  9
$TDCREATE
 40
2459070.7215972221456468
  9
$TDUPDATE
 40
2459070.7215972221456468
  9
$TDINDWG
 40
0.0
  9
$TDUSRTIMER
 40
0.0
  9
$USRTIMER
 70
     1
  9
$ANGBASE
 50
0.0
  9
$ANGDIR
 70
     0
  9
$PDMODE
 70
     0
  9
$PDSIZE
 40
0.0
  9
$PLINEWID
 40
0.0
  9
$COORDS
 70
     0
  9
$SPLFRAME
 70
     0
  9
$SPLINETYPE
 70
     6
  9
$SPLINESEGS
 70
     8
  9
$ATTDIA
 70
     1
  9
$ATTREQ
 70
     1
  9
$HANDLING
 70
     1
  9
$HANDSEED
  5
26F
  9
$SURFTAB1
 70
     6
  9
$SURFTAB2
 70
     6
  9
$SURFTYPE
 70
     6
  9
$SURFU
 70
     6
  9
$SURFV
 70
     6
  9
$UCSNAME
  2

  9
$UCSORG
 10
0.0
 20
0.0
 30
0.0
  9
$UCSXDIR
 10
1.0
 20
0.0
 30
0.0
  9
$UCSYDIR
 10
0.0
 20
1.0
 30
0.0
  9
$PUCSNAME
  2

  9
$PUCSORG
 10
0.0
 20
0.0
 30
0.0
  9
$PUCSXDIR
 10
1.0
 20
0.0
 30
0.0
  9
$PUCSYDIR
 10
0.0
 20
1.0
 30
0.0
  9
$USERI1
 70
     0
  9
$USERI2
 70
     0
  9
$USERI3
 70
     0
  9
$USERI4
 70
     0
  9
$USERI5
 70
     0
  9
$USERR1
 40
0.0
  9
$USERR2
 40
0.0
  9
$USERR3
 40
0.0
  9
$USERR4
 40
0.0
  9
$USERR5
 40
0.0
  9
$WORLDVIEW
 70
     1
  9
$SHADEDGE
 70
     3
  9
$SHADEDIF
 70
    70
  9
$TILEMODE
 70
     1
  9
$MAXACTVP
 70
    64
  9
$PLIMCHECK
 70
     0
  9
$PEXTMIN
 10
0.0
 20
0.0
 30
0.0
  9
$PEXTMAX
 10
171.5999999999999091
 20
511.5000000000001137
 30
0.0
  9
$PLIMMIN
 10
0.0
 20
0.0
  9
$PLIMMAX
 10
171.5999999999999091
 20
511.5000000000001137
  9
$UNITMODE
 70
     0
  9
$VISRETAIN
 70
     1
  9
$PLINEGEN
 70
     0
  9
$PSLTSCALE
 70
     1
  0
ENDSEC
  0
SECTION
  2
TABLES
  0
TABLE
  2
VPORT
 70
     1
  0
VPORT
  2
*ACTIVE
 70
     0
 10
0.0
 20
0.0
 11
1.0
 21
1.0
 12
-0.0000000000000284
 22
0.0
 13
0.0
 23
0.0
 14
1.0
 24
1.0
 15
0.0
 25
0.0
 16
0.0
 26
0.0
 36
1.0
 17
0.0
 27
0.0
 37
0.0
 40
511.5000000000001137
 41
0.3354838709677418
 42
50.0
 43
0.0
 44
0.0
 50
0.0
 51
0.0
 71
     0
 72
   100
 73
     1
 74
     1
 75
     0
 76
     0
 77
     0
 78
     0
  0
ENDTAB
  0
TABLE
  2
LTYPE
 70
    59
  0
LTYPE
  2
CONTINUOUS
 70
     0
  3
Solid line
 72
    65
 73
     0
 40
0.0
  0
LTYPE
  2
SECTION_VIEW_LINES
 70
     0
  3
Section View Lines
 72
    65
 73
     4
 40
0.8406
 49
0.6614
 49
-0.0827
 49
0.0138
 49
-0.0827
  0
LTYPE
  2
CHAIN
 70
     0
  3
Chain ____ _ ____ _ ____ _ ____ _ ____ _ ____
 72
    65
 73
     4
 40
0.3543
 49
0.2362
 49
-0.0295
 49
0.0591
 49
-0.0295
  0
LTYPE
  2
DASH_DOT
 70
     0
  3
Dash dot _._._._._._._._._._._._._._._.
 72
    65
 73
     4
 40
0.182
 49
0.1181
 49
-0.0295
 49
0.0049
 49
-0.0295
  0
LTYPE
  2
DASH_DOUBLE_DOT
 70
     0
  3
Dash Double Dot __ __ . __ __ . __ __ . __ _
 72
    65
 73
     6
 40
0.2164
 49
0.1181
 49
-0.0295
 49
0.0049
 49
-0.0295
 49
0.0049
 49
-0.0295
  0
LTYPE
  2
DASH_TRIPLE_DOT
 70
     0
  3
Dash Triple-Dot _ . . . _ . . . _ . . . _
 72
    65
 73
     8
 40
0.2508
 49
0.1181
 49
-0.0295
 49
0.0049
 49
-0.0295
 49
0.0049
 49
-0.0295
 49
0.0049
 49
-0.0295
  0
LTYPE
  2
DASHED
 70
     0
  3
Dashed __ __ __ __ __ __ __ __ __ __ __ __ __ _
 72
    65
 73
     2
 40
0.2068
 49
0.1655
 49
-0.0413
  0
LTYPE
  2
DASHED_SPACE
 70
     0
  3
Dashed Space __ __ __ __ __ __ __ __ __ __ __ _
 72
    65
 73
     2
 40
0.2067
 49
0.1654
 49
-0.0413
  0
LTYPE
  2
DOTTED
 70
     0
  3
Dotted . . . . . . . . . . . . . . . . . . . . 
 72
    65
 73
     2
 40
0.0481
 49
0.0068
 49
-0.0413
  0
LTYPE
  2
DOUBLE_DASH_CHAIN
 70
     0
  3
Double Dash Chain ___ _ _ ___ _ _ ___ _ _ ___ _
 72
    65
 73
     6
 40
1.2402999999999991
 49
0.6614
 49
-0.0827
 49
0.1654
 49
-0.0827
 49
0.1654
 49
-0.0827
  0
LTYPE
  2
DOUBLE_DASH_DOT
 70
     0
  3
Double Dash Dot __ __ . __ __ . __ __ . __ _
 72
    65
 73
     6
 40
0.3296
 49
0.1181
 49
-0.0295
 49
0.1181
 49
-0.0295
 49
0.0049
 49
-0.0295
  0
LTYPE
  2
DOUBLE_DASH_DOUBLE_DOT
 70
     0
  3
Double Dash Double Dot _ _ . . _ _ . . _ _
 72
    65
 73
     8
 40
0.364
 49
0.1181
 49
-0.0295
 49
0.1181
 49
-0.0295
 49
0.0049
 49
-0.0295
 49
0.0049
 49
-0.0295
  0
LTYPE
  2
DOUBLE_DASH_TRIPLE_DOT
 70
     0
  3
Double Dash Triple Dot __ __ . . . __ __ . . .
 72
    65
 73
    10
 40
0.3984
 49
0.1181
 49
-0.0295
 49
0.1181
 49
-0.0295
 49
0.0049
 49
-0.0295
 49
0.0049
 49
-0.0295
 49
0.0049
 49
-0.0295
  0
LTYPE
  2
LONG_DASH_DOTTED
 70
     0
  3
Long Dash Dotted ____ . ____ . ____ . ____ . _
 72
    65
 73
     4
 40
0.3001
 49
0.2362
 49
-0.0295
 49
0.0049
 49
-0.0295
  0
LTYPE
  2
LONG_DASH_DOUBLE_DOT
 70
     0
  3
Long Dash Double Dot ____ . . ____ . . ____ . .
 72
    65
 73
     6
 40
0.3345
 49
0.2362
 49
-0.0295
 49
0.0049
 49
-0.0295
 49
0.0049
 49
-0.0295
  0
LTYPE
  2
LONG_DASH_TRIPLE_DOT
 70
     0
  3
Long Dash Triple Dot ____ ... ____ ... ____
 72
    65
 73
     8
 40
0.3689
 49
0.2362
 49
-0.0295
 49
0.0049
 49
-0.0295
 49
0.0049
 49
-0.0295
 49
0.0049
 49
-0.0295
  0
LTYPE
  2
BORDER
 70
     0
  3
Border __ __ . __ __ . __ __ . __ __ . __ __ .
 72
    65
 73
     6
 40
44.4500000000000028
 49
12.6999999999999993
 49
-6.3499999999999988
 49
12.6999999999999993
 49
-6.3499999999999988
 49
0.0
 49
-6.3499999999999988
  0
LTYPE
  2
BORDER2
 70
     0
  3
Border (.5x) __.__.__.__.__.__.__.__.__.__.__.
 72
    65
 73
     6
 40
22.2250000000000014
 49
6.3499999999999988
 49
-3.1749999999999989
 49
6.3499999999999988
 49
-3.1749999999999989
 49
0.0
 49
-3.1749999999999989
  0
LTYPE
  2
BORDERX2
 70
     0
  3
Border (2x) ____  ____  .  ____  ____  .  ___
 72
    65
 73
     6
 40
88.9000000000000057
 49
25.3999999999999986
 49
-12.6999999999999993
 49
25.3999999999999986
 49
-12.6999999999999993
 49
0.0
 49
-12.6999999999999993
  0
LTYPE
  2
CENTER
 70
     0
  3
Center ____ _ ____ _ ____ _ ____ _ ____ _ ____
 72
    65
 73
     4
 40
50.7999999999999972
 49
31.75
 49
-6.3499999999999988
 49
6.3499999999999988
 49
-6.3499999999999988
  0
LTYPE
  2
CENTER2
 70
     0
  3
Center (.5x) ___ _ ___ _ ___ _ ___ _ ___ _ ___
 72
    65
 73
     4
 40
28.5749999999999993
 49
19.0500000000000007
 49
-3.1749999999999989
 49
3.1749999999999989
 49
-3.1749999999999989
  0
LTYPE
  2
CENTERX2
 70
     0
  3
Center (2x) ________  __  ________  __  _____
 72
    65
 73
     4
 40
101.5999999999999943
 49
63.5
 49
-12.6999999999999993
 49
12.6999999999999993
 49
-12.6999999999999993
  0
LTYPE
  2
DASHDOT2
 70
     0
  3
Dash dot (.5x) _._._._._._._._._._._._._._._.
 72
    65
 73
     4
 40
12.6999999999999993
 49
6.3499999999999988
 49
-3.1749999999999989
 49
0.0
 49
-3.1749999999999989
  0
LTYPE
  2
DASHDOTX2
 70
     0
  3
Dash dot (2x) ____  .  ____  .  ____  .  ___
 72
    65
 73
     4
 40
50.7999999999999972
 49
25.3999999999999986
 49
-12.6999999999999993
 49
0.0
 49
-12.6999999999999993
  0
LTYPE
  2
DASHED2
 70
     0
  3
Dashed (.5x) _ _ _ _ _ _ _ _ _ _ _ _ _ _ _ _ _
 72
    65
 73
     2
 40
9.5249999999999986
 49
6.3499999999999988
 49
-3.1749999999999989
  0
LTYPE
  2
DASHEDX2
 70
     0
  3
Dashed (2x) ____  ____  ____  ____  ____  ___
 72
    65
 73
     2
 40
38.1000000000000014
 49
25.3999999999999986
 49
-12.6999999999999993
  0
LTYPE
  2
DIVIDE
 70
     0
  3
Divide ____ . . ____ . . ____ . . ____ . . ____
 72
    65
 73
     6
 40
31.75
 49
12.6999999999999993
 49
-6.3499999999999988
 49
0.0
 49
-6.3499999999999988
 49
0.0
 49
-6.3499999999999988
  0
LTYPE
  2
DIVIDE2
 70
     0
  3
Divide (.5x) __..__..__..__..__..__..__..__.._
 72
    65
 73
     6
 40
15.875
 49
6.3499999999999988
 49
-3.1749999999999989
 49
0.0
 49
-3.1749999999999989
 49
0.0
 49
-3.1749999999999989
  0
LTYPE
  2
DIVIDEX2
 70
     0
  3
Divide (2x) ________  .  .  ________  .  .  _
 72
    65
 73
     6
 40
63.4999999999999929
 49
25.3999999999999986
 49
-12.6999999999999993
 49
0.0
 49
-12.6999999999999993
 49
0.0
 49
-12.6999999999999993
  0
LTYPE
  2
DOT
 70
     0
  3
Dot . . . . . . . . . . . . . . . . . . . . . .
 72
    65
 73
     2
 40
6.3499999999999988
 49
0.0
 49
-6.3499999999999988
  0
LTYPE
  2
DOT2
 70
     0
  3
Dot (.5x) .....................................
 72
    65
 73
     2
 40
3.1749999999999989
 49
0.0
 49
-3.1749999999999989
  0
LTYPE
  2
DOTX2
 70
     0
  3
Dot (2x) .  .  .  .  .  .  .  .  .  .  .  .  . 
 72
    65
 73
     2
 40
12.6999999999999993
 49
0.0
 49
-12.6999999999999993
  0
LTYPE
  2
HIDDEN
 70
     0
  3
Hidden __ __ __ __ __ __ __ __ __ __ __ __ __ _
 72
    65
 73
     2
 40
9.5249999999999986
 49
6.3499999999999988
 49
-3.1749999999999989
  0
LTYPE
  2
HIDDEN2
 70
     0
  3
Hidden (.5x) _ _ _ _ _ _ _ _ _ _ _ _ _ _ _ _ _
 72
    65
 73
     2
 40
4.7624999999999993
 49
3.1749999999999989
 49
-1.587499999999999
  0
LTYPE
  2
HIDDENX2
 70
     0
  3
Hidden (2x) ____ ____ ____ ____ ____ ____ ____
 72
    65
 73
     2
 40
19.0500000000000007
 49
12.6999999999999993
 49
-6.3499999999999988
  0
LTYPE
  2
PHANTOM
 70
     0
  3
Phantom ______  __  __  ______  __  __  ______
 72
    65
 73
     6
 40
63.5
 49
31.75
 49
-6.3499999999999988
 49
6.3499999999999988
 49
-6.3499999999999988
 49
6.3499999999999988
 49
-6.3499999999999988
  0
LTYPE
  2
PHANTOM2
 70
     0
  3
Phantom (.5x) ___ _ _ ___ _ _ ___ _ _ ___ _ _
 72
    65
 73
     6
 40
31.75
 49
15.875
 49
-3.1749999999999989
 49
3.1749999999999989
 49
-3.1749999999999989
 49
3.1749999999999989
 49
-3.1749999999999989
  0
LTYPE
  2
PHANTOMX2
 70
     0
  3
Phantom (2x) ____________    ____    ____   _
 72
    65
 73
     6
 40
127.0
 49
63.5
 49
-12.6999999999999993
 49
12.6999999999999993
 49
-12.6999999999999993
 49
12.6999999999999993
 49
-12.6999999999999993
  0
LTYPE
  2
ACAD_ISO02W100
 70
     0
  3
ISO dash __ __ __ __ __ __ __ __ __ __ __ __ __
 72
    65
 73
     2
 40
15.0
 49
12.0
 49
-3.0
  0
LTYPE
  2
ACAD_ISO03W100
 70
     0
  3
ISO dash space __    __    __    __    __    __
 72
    65
 73
     2
 40
30.0
 49
12.0
 49
-18.0
  0
LTYPE
  2
ACAD_ISO04W100
 70
     0
  3
ISO long-dash dot ____ . ____ . ____ . ____ . _
 72
    65
 73
     4
 40
30.0
 49
24.0
 49
-3.0
 49
0.0
 49
-3.0
  0
LTYPE
  2
ACAD_ISO05W100
 70
     0
  3
ISO long-dash double-dot ____ .. ____ .. ____ .
 72
    65
 73
     6
 40
33.0
 49
24.0
 49
-3.0
 49
0.0
 49
-3.0
 49
0.0
 49
-3.0
  0
LTYPE
  2
ACAD_ISO06W100
 70
     0
  3
ISO long-dash triple-dot ____ ... ____ ... ____
 72
    65
 73
     8
 40
36.0
 49
24.0
 49
-3.0
 49
0.0
 49
-3.0
 49
0.0
 49
-3.0
 49
0.0
 49
-3.0
  0
LTYPE
  2
ACAD_ISO07W100
 70
     0
  3
ISO dot . . . . . . . . . . . . . . . . . . . .
 72
    65
 73
     2
 40
3.0
 49
0.0
 49
-3.0
  0
LTYPE
  2
ACAD_ISO08W100
 70
     0
  3
ISO long-dash short-dash ____ __ ____ __ ____ _
 72
    65
 73
     4
 40
36.0
 49
24.0
 49
-3.0
 49
6.0
 49
-3.0
  0
LTYPE
  2
ACAD_ISO09W100
 70
     0
  3
ISO long-dash double-short-dash ____ __ __ ____
 72
    65
 73
     6
 40
45.0
 49
24.0
 49
-3.0
 49
6.0
 49
-3.0
 49
6.0
 49
-3.0
  0
LTYPE
  2
ACAD_ISO10W100
 70
     0
  3
ISO dash dot __ . __ . __ . __ . __ . __ . __ .
 72
    65
 73
     4
 40
18.0
 49
12.0
 49
-3.0
 49
0.0
 49
-3.0
  0
LTYPE
  2
ACAD_ISO11W100
 70
     0
  3
ISO double-dash dot __ __ . __ __ . __ __ . __ 
 72
    65
 73
     6
 40
33.0
 49
12.0
 49
-3.0
 49
12.0
 49
-3.0
 49
0.0
 49
-3.0
  0
LTYPE
  2
ACAD_ISO12W100
 70
     0
  3
ISO dash double-dot __ . . __ . . __ . . __ . .
 72
    65
 73
     6
 40
21.0
 49
12.0
 49
-3.0
 49
0.0
 49
-3.0
 49
0.0
 49
-3.0
  0
LTYPE
  2
ACAD_ISO13W100
 70
     0
  3
ISO double-dash double-dot __ __ . . __ __ . . 
 72
    65
 73
     8
 40
36.0
 49
12.0
 49
-3.0
 49
12.0
 49
-3.0
 49
0.0
 49
-3.0
 49
0.0
 49
-3.0
  0
LTYPE
  2
ACAD_ISO14W100
 70
     0
  3
ISO dash triple-dot __ . . . __ . . . __ . . . 
 72
    65
 73
     8
 40
24.0
 49
12.0
 49
-3.0
 49
0.0
 49
-3.0
 49
0.0
 49
-3.0
 49
0.0
 49
-3.0
  0
LTYPE
  2
ACAD_ISO15W100
 70
     0
  3
ISO double-dash triple-dot __ __ . . . __ __ . 
 72
    65
 73
    10
 40
39.0
 49
12.0
 49
-3.0
 49
12.0
 49
-3.0
 49
0.0
 49
-3.0
 49
0.0
 49
-3.0
 49
0.0
 49
-3.0
  0
LTYPE
  2
FENCELINE1
 70
     0
  3
Fenceline circle ----0-----0----0-----0----0---
 72
    65
 73
     4
 40
36.8299999999999983
 49
6.3499999999999988
 49
-2.54
 49
-2.54
 49
25.3999999999999986
  0
LTYPE
  2
FENCELINE2
 70
     0
  3
Fenceline square ----[]-----[]----[]-----[]----
 72
    65
 73
     4
 40
36.8299999999999983
 49
6.3499999999999988
 49
-2.54
 49
-2.54
 49
25.3999999999999986
  0
LTYPE
  2
TRACKS
 70
     0
  3
Tracks -|-|-|-|-|-|-|-|-|-|-|-|-|-|-|-|-|-|-|-|
 72
    65
 73
     2
 40
7.6200000000000001
 49
3.8100000000000001
 49
3.8100000000000001
  0
LTYPE
  2
BATTING
 70
     0
  3
Batting SSSSSSSSSSSSSSSSSSSSSSSSSSSSSSSSSSSSSSS
 72
    65
 73
     4
 40
10.1625399999999999
 49
0.00254
 49
-2.54
 49
-5.0800000000000001
 49
-2.54
  0
LTYPE
  2
HOT_WATER_SUPPLY
 70
     0
  3
Hot water supply ---- HW ---- HW ---- HW ----
 72
    65
 73
     3
 40
22.8599999999999994
 49
12.6999999999999993
 49
-5.0800000000000001
 49
-5.0800000000000001
  0
LTYPE
  2
GAS_LINE
 70
     0
  3
Gas line ----GAS----GAS----GAS----GAS----GAS---
 72
    65
 73
     3
 40
24.129999999999999
 49
12.6999999999999993
 49
-5.0800000000000001
 49
-6.3499999999999988
  0
LTYPE
  2
ZIGZAG
 70
     0
  3
Zig zag /\/\/\/\/\/\/\/\/\/\/\/\/\/\/\/\/\/\/\/
 72
    65
 73
     4
 40
20.32254
 49
0.00254
 49
-5.0800000000000001
 49
-10.1600000000000001
 49
-5.0800000000000001
  0
ENDTAB
  0
TABLE
  2
LAYER
 70
     1
  0
LAYER
  2
0
 70
     0
 62
     7
  6
CONTINUOUS
  0
ENDTAB
  0
TABLE
  2
STYLE
 70
     5
  0
STYLE
  2
STANDARD
 70
     0
 40
0.0
 41
1.0
 50
0.0
 71
     0
 42
0.2
  3
txt
  4

  0
STYLE
  2
ANNOTATIVE
 70
     0
 40
0.0
 41
1.0
 50
0.0
 71
     0
 42
0.2
  3
txt
  4

  0
STYLE
  2

 70
     1
 40
0.0
 41
1.0
 50
0.0
 71
     0
 42
0.2
  3
ltypeshp.shx
  4

  0
STYLE
  2
NOTE_TEXT__ISO__-_3DA
 70
     0
 40
0.0
 41
1.0
 50
0.0
 71
     0
 42
0.2
  3
txt.shx
  4
bigfont.shx
  0
STYLE
  2
SKETCH_TEXT__ISO__-_3DA
 70
     0
 40
0.0
 41
1.0
 50
0.0
 71
     0
 42
0.2
  3
txt.shx
  4
bigfont.shx
  0
ENDTAB
  0
TABLE
  2
VIEW
 70
     0
  0
ENDTAB
  0
TABLE
  2
UCS
 70
     0
  0
ENDTAB
  0
TABLE
  2
APPID
 70
     3
  0
APPID
  2
ACAD
 70
     0
  0
APPID
  2
ACADANNOTATIVE
 70
     0
  0
APPID
  2
ACAD_MLEADERVER
 70
     0
  0
ENDTAB
  0
TABLE
  2
DIMSTYLE
 70
     2
  0
DIMSTYLE
  2
STANDARD
 70
     0
  3

  4

  5

  6

  7

 40
1.0
 41
0.18
 42
0.0625
 43
0.38
 44
0.18
 45
0.0
 46
0.0
 47
0.0
 48
0.0
140
0.18
141
0.09
142
0.0
143
25.3999999999999986
144
1.0
145
0.0
146
1.0
147
0.09
 71
     0
 72
     0
 73
     1
 74
     1
 75
     0
 76
     0
 77
     0
 78
     0
170
     0
171
     2
172
     0
173
     0
174
     0
175
     0
176
     0
177
     0
178
     0
  0
DIMSTYLE
  2
ANNOTATIVE
 70
     0
  3

  4

  5

  6

  7

 40
1.0
 41
0.18
 42
0.0625
 43
0.38
 44
0.18
 45
0.0
 46
0.0
 47
0.0
 48
0.0
140
0.18
141
0.09
142
0.0
143
25.3999999999999986
144
1.0
145
0.0
146
1.0
147
0.09
 71
     0
 72
     0
 73
     1
 74
     1
 75
     0
 76
     0
 77
     0
 78
     0
170
     0
171
     2
172
     0
173
     0
174
     0
175
     0
176
     0
177
     0
178
     0
  0
ENDTAB
  0
ENDSEC
  0
SECTION
  2
BLOCKS
  0
BLOCK
  8
0
  2
$MODEL_SPACE
 70
     0
 10
0.0
 20
0.0
 30
0.0
  3
$MODEL_SPACE
  1

  0
ENDBLK
  5
72
  8
0
  0
BLOCK
 67
     1
  8
0
  2
$PAPER_SPACE
 70
     0
 10
0.0
 20
0.0
 30
0.0
  3
$PAPER_SPACE
  1

  0
ENDBLK
  5
6E
 67
     1
  8
0
  0
ENDSEC
  0
SECTION
  2
ENTITIES
  0
POLYLINE
  5
B6
  8
0
 66
     1
 10
0.0
 20
0.0
 30
0.0
 70
     1
  0
VERTEX
  5
B7
  8
0
 10
64.4142135623731633
 20
-110.1236601569708995
 30
0.0
 42
0.198912367379658
  0
VERTEX
  5
B8
  8
0
 10
63.7071067811866172
 20
-110.4165533757843036
 30
0.0
  0
VERTEX
  5
BA
  8
0
 10
59.2928932188135178
 20
-114.8307669381573959
 30
0.0
 42
-0.1989123673796596
  0
VERTEX
  5
BB
  8
0
 10
58.5857864376269575
 20
-115.1236601569708995
 30
0.0
  0
VERTEX
  5
BC
  8
0
 10
43.2196000000007032
 20
-115.1236601569708995
 30
0.0
 42
-0.4142135623730951
  0
VERTEX
  5
BD
  8
0
 10
42.2196000000007103
 20
-114.1236601569708995
 30
0.0
  0
VERTEX
  5
BE
  8
0
 10
42.2196000000007103
 20
-104.6674418281952939
 30
0.0
 42
0.3342899754107705
  0
VERTEX
  5
BF
  8
0
 10
40.7729862827562073
 20
-102.7455251749404965
 30
0.0
 42
-0.116058744837753
  0
VERTEX
  5
C0
  8
0
 10
39.7673088020483902
 20
-102.1810947173586044
 30
0.0
 42
-0.2100806729415391
  0
VERTEX
  5
C1
  8
0
 10
39.1196000000004176
 20
-100.7075586587766054
 30
0.0
  0
VERTEX
  5
C2
  8
0
 10
39.1196000000004176
 20
-95.7514641371956259
 30
0.0
 42
-0.2100806729414816
  0
VERTEX
  5
C3
  8
0
 10
39.7673088020480705
 20
-94.2779280786139253
 30
0.0
 42
-0.0220200711208957
  0
VERTEX
  5
C4
  8
0
 10
39.9370498220629173
 20
-94.1353960928773574
 30
0.0
 42
0.2331794300911446
  0
VERTEX
  5
C5
  8
0
 10
40.7196000000006819
 20
-92.5486333725059183
 30
0.0
  0
VERTEX
  5
C6
  8
0
 10
40.7196000000006677
 20
-83.4103894234663983
 30
0.0
 42
0.2331794300911451
  0
VERTEX
  5
C7
  8
0
 10
39.9370498220629173
 20
-81.8236267030949449
 30
0.0
 42
-0.02202007112089
  0
VERTEX
  5
C8
  8
0
 10
39.7673088020480989
 20
-81.6810947173584339
 30
0.0
 42
-0.2100806729414883
  0
VERTEX
  5
C9
  8
0
 10
39.1196000000004105
 20
-80.2075586587766765
 30
0.0
  0
VERTEX
  5
CA
  8
0
 10
39.1196000000004105
 20
-75.2514641371956259
 30
0.0
 42
-0.2100806729414862
  0
VERTEX
  5
CB
  8
0
 10
39.7673088020480776
 20
-73.7779280786138543
 30
0.0
 42
-0.0220200711208931
  0
VERTEX
  5
CC
  8
0
 10
39.9370498220629173
 20
-73.6353960928773432
 30
0.0
 42
0.2331794300911463
  0
VERTEX
  5
CD
  8
0
 10
40.7196000000006677
 20
-72.0486333725058898
 30
0.0
  0
VERTEX
  5
CE
  8
0
 10
40.7196000000006677
 20
-62.9103894234664125
 30
0.0
 42
0.2331794300911467
  0
VERTEX
  5
CF
  8
0
 10
39.9370498220629102
 20
-61.3236267030949591
 30
0.0
 42
-0.0220200711208875
  0
VERTEX
  5
D0
  8
0
 10
39.7673088020481202
 20
-61.1810947173584765
 30
0.0
 42
-0.2100806729414915
  0
VERTEX
  5
D1
  8
0
 10
39.1196000000004105
 20
-59.7075586587766907
 30
0.0
  0
VERTEX
  5
D2
  8
0
 10
39.1196000000004105
 20
-54.751464137195633
 30
0.0
 42
-0.2100806729414915
  0
VERTEX
  5
D3
  8
0
 10
39.7673088020481202
 20
-53.2779280786138401
 30
0.0
 42
-0.0220200711208875
  0
VERTEX
  5
D4
  8
0
 10
39.9370498220629102
 20
-53.1353960928773574
 30
0.0
 42
0.2331794300911467
  0
VERTEX
  5
D5
  8
0
 10
40.7196000000006677
 20
-51.5486333725058898
 30
0.0
  0
VERTEX
  5
D6
  8
0
 10
40.7196000000006677
 20
-42.4103894234664125
 30
0.0
 42
0.2331794300911479
  0
VERTEX
  5
D7
  8
0
 10
39.9370498220629031
 20
-40.8236267030949378
 30
0.0
 42
-0.0220200711208875
  0
VERTEX
  5
D8
  8
0
 10
39.7673088020481131
 20
-40.6810947173584623
 30
0.0
 42
-0.2100806729414915
  0
VERTEX
  5
D9
  8
0
 10
39.1196000000003892
 20
-39.2075586587766765
 30
0.0
  0
VERTEX
  5
DA
  8
0
 10
39.1196000000004105
 20
-34.2514641371956117
 30
0.0
 42
-0.2100806729414923
  0
VERTEX
  5
DB
  8
0
 10
39.7673088020481131
 20
-32.777928078613833
 30
0.0
 42
-0.0220200711208865
  0
VERTEX
  5
DC
  8
0
 10
39.9370498220629031
 20
-32.6353960928773503
 30
0.0
 42
0.2331794300911471
  0
VERTEX
  5
DD
  8
0
 10
40.7196000000006677
 20
-31.0486333725058898
 30
0.0
  0
VERTEX
  5
DE
  8
0
 10
40.7196000000006535
 20
-21.9103894234664089
 30
0.0
 42
0.2331794300911484
  0
VERTEX
  5
DF
  8
0
 10
39.9370498220628889
 20
-20.3236267030949485
 30
0.0
 42
-0.022020071120877
  0
VERTEX
  5
E0
  8
0
 10
39.7673088020481771
 20
-20.1810947173585404
 30
0.0
 42
-0.2100806729415038
  0
VERTEX
  5
E1
  8
0
 10
39.1196000000003892
 20
-18.7075586587766907
 30
0.0
  0
VERTEX
  5
E2
  8
0
 10
39.1196000000003892
 20
-13.7514641371955904
 30
0.0
 42
-0.2100806729415045
  0
VERTEX
  5
E3
  8
0
 10
39.7673088020481771
 20
-12.2779280786137406
 30
0.0
 42
-0.0220200711208764
  0
VERTEX
  5
E4
  8
0
 10
39.9370498220628889
 20
-12.1353960928773308
 30
0.0
 42
0.2331794300911474
  0
VERTEX
  5
E5
  8
0
 10
40.7196000000006535
 20
-10.5486333725058703
 30
0.0
  0
VERTEX
  5
E6
  8
0
 10
40.7196000000006535
 20
-1.410389423466416
 30
0.0
 42
0.2331794300911483
  0
VERTEX
  5
E7
  8
0
 10
39.9370498220628818
 20
0.1763732969050491
 30
0.0
 42
-0.022020071120877
  0
VERTEX
  5
E8
  8
0
 10
39.7673088020481629
 20
0.318905282641456
 30
0.0
 42
-0.2100806729415042
  0
VERTEX
  5
E9
  8
0
 10
39.1196000000003892
 20
1.792441341223308
 30
0.0
  0
VERTEX
  5
EA
  8
0
 10
39.1196000000003892
 20
6.748535862804407
 30
0.0
 42
-0.2100806729415049
  0
VERTEX
  5
EB
  8
0
 10
39.76730880204817
 20
8.2220719213862612
 30
0.0
 42
-0.0220200711208764
  0
VERTEX
  5
EC
  8
0
 10
39.9370498220628818
 20
8.3646039071226657
 30
0.0
 42
0.2331794300911481
  0
VERTEX
  5
ED
  8
0
 10
40.7196000000006535
 20
9.9513666274941315
 30
0.0
  0
VERTEX
  5
EE
  8
0
 10
40.7196000000006393
 20
19.0896105765335804
 30
0.0
 42
0.2331794300911486
  0
VERTEX
  5
EF
  8
0
 10
39.9370498220628818
 20
20.6763732969050515
 30
0.0
 42
-0.0220200711208663
  0
VERTEX
  5
F0
  8
0
 10
39.767308802048241
 20
20.8189052826413814
 30
0.0
 42
-0.2100806729415161
  0
VERTEX
  5
F1
  8
0
 10
39.1196000000003892
 20
22.2924413412232987
 30
0.0
  0
VERTEX
  5
F2
  8
0
 10
39.1196000000003892
 20
27.248535862804431
 30
0.0
 42
-0.2100806729415173
  0
VERTEX
  5
F3
  8
0
 10
39.767308802048241
 20
28.7220719213863482
 30
0.0
 42
-0.022020071120865
  0
VERTEX
  5
F4
  8
0
 10
39.9370498220628818
 20
28.864603907122671
 30
0.0
 42
0.2331794300911497
  0
VERTEX
  5
F5
  8
0
 10
40.7196000000006393
 20
30.4513666274941492
 30
0.0
  0
VERTEX
  5
F6
  8
0
 10
40.7196000000006393
 20
39.5896105765335875
 30
0.0
 42
0.2331794300911472
  0
VERTEX
  5
F7
  8
0
 10
39.9370498220628818
 20
41.1763732969050409
 30
0.0
 42
-0.0220200711208657
  0
VERTEX
  5
F8
  8
0
 10
39.767308802048241
 20
41.3189052826413672
 30
0.0
 42
-0.2100806729415173
  0
VERTEX
  5
F9
  8
0
 10
39.1196000000003821
 20
42.792441341223288
 30
0.0
  0
VERTEX
  5
FA
  8
0
 10
39.1196000000003821
 20
47.748535862804431
 30
0.0
 42
-0.2100806729415173
  0
VERTEX
  5
FB
  8
0
 10
39.767308802048241
 20
49.2220719213863518
 30
0.0
 42
-0.4162323792573349
  0
VERTEX
  5
FC
  8
0
 10
43.3361975150006487
 20
49.0566299882626495
 30
0.0
 42
0.211879258381489
  0
VERTEX
  5
FD
  8
0
 10
44.8190127893145984
 20
48.3987398430291123
 30
0.0
  0
VERTEX
  5
FE
  8
0
 10
75.0000000000000142
 20
48.3987398430291123
 30
0.0
  0
VERTEX
  5
FF
  8
0
 10
75.0
 20
184.5
 30
0.0
  0
VERTEX
  5
100
  8
0
 10
57.5
 20
184.5
 30
0.0
  0
VERTEX
  5
101
  8
0
 10
57.5
 20
215.0
 30
0.0
  0
VERTEX
  5
102
  8
0
 10
55.0
 20
215.0
 30
0.0
  0
VERTEX
  5
103
  8
0
 10
55.0
 20
220.0
 30
0.0
  0
VERTEX
  5
104
  8
0
 10
24.5
 20
220.0
 30
0.0
  0
VERTEX
  5
105
  8
0
 10
24.5
 20
232.5
 30
0.0
  0
VERTEX
  5
106
  8
0
 10
-24.4999999999999893
 20
232.5
 30
0.0
  0
VERTEX
  5
107
  8
0
 10
-24.5
 20
220.0
 30
0.0
  0
VERTEX
  5
108
  8
0
 10
-55.0
 20
220.0
 30
0.0
  0
VERTEX
  5
109
  8
0
 10
-55.0
 20
215.0
 30
0.0
  0
VERTEX
  5
10A
  8
0
 10
-78.0
 20
215.0
 30
0.0
  0
VERTEX
  5
10B
  8
0
 10
-77.9999999999999574
 20
46.0635013144661727
 30
0.0
  0
VERTEX
  5
10C
  8
0
 10
-75.0
 20
46.0635013144661727
 30
0.0
  0
VERTEX
  5
10D
  8
0
 10
-75.0
 20
40.8931999999999434
 30
0.0
  0
VERTEX
  5
10E
  8
0
 10
-77.9999999999999574
 20
40.8931999999999434
 30
0.0
  0
VERTEX
  5
10F
  8
0
 10
-77.9999999999999574
 20
30.6061999999999408
 30
0.0
  0
VERTEX
  5
110
  8
0
 10
-75.0
 20
30.6061999999999301
 30
0.0
  0
VERTEX
  5
111
  8
0
 10
-75.0
 20
20.5477999999999383
 30
0.0
  0
VERTEX
  5
112
  8
0
 10
-77.9999999999999574
 20
20.5477999999999383
 30
0.0
  0
VERTEX
  5
113
  8
0
 10
-77.9999999999999574
 20
10.2607999999999393
 30
0.0
  0
VERTEX
  5
114
  8
0
 10
-75.0
 20
10.2607999999999304
 30
0.0
  0
VERTEX
  5
115
  8
0
 10
-75.0
 20
-0.1068000000000513
 30
0.0
  0
VERTEX
  5
116
  8
0
 10
-77.9999999999999574
 20
-0.1068000000000509
 30
0.0
  0
VERTEX
  5
117
  8
0
 10
-77.9999999999999574
 20
-10.3938000000000503
 30
0.0
  0
VERTEX
  5
118
  8
0
 10
-75.0
 20
-10.3938000000000805
 30
0.0
  0
VERTEX
  5
119
  8
0
 10
-75.0
 20
-20.4522000000000617
 30
0.0
  0
VERTEX
  5
11A
  8
0
 10
-77.9999999999999574
 20
-20.4522000000000617
 30
0.0
  0
VERTEX
  5
11B
  8
0
 10
-77.9999999999999574
 20
-30.73920000000005
 30
0.0
  0
VERTEX
  5
11C
  8
0
 10
-75.0
 20
-30.73920000000005
 30
0.0
  0
VERTEX
  5
11D
  8
0
 10
-75.0
 20
-41.1068000000000779
 30
0.0
  0
VERTEX
  5
11E
  8
0
 10
-77.9999999999999432
 20
-41.1068000000000779
 30
0.0
  0
VERTEX
  5
11F
  8
0
 10
-77.9999999999999432
 20
-51.3938000000000699
 30
0.0
  0
VERTEX
  5
120
  8
0
 10
-75.0
 20
-51.3938000000000628
 30
0.0
  0
VERTEX
  5
121
  8
0
 10
-75.0
 20
-61.4522000000000901
 30
0.0
  0
VERTEX
  5
122
  8
0
 10
-77.9999999999999432
 20
-61.4522000000000901
 30
0.0
  0
VERTEX
  5
123
  8
0
 10
-77.9999999999999432
 20
-71.7392000000000536
 30
0.0
  0
VERTEX
  5
124
  8
0
 10
-75.0
 20
-71.7392000000000962
 30
0.0
  0
VERTEX
  5
125
  8
0
 10
-75.0
 20
-82.1068000000000779
 30
0.0
  0
VERTEX
  5
126
  8
0
 10
-77.9999999999999432
 20
-82.1068000000000779
 30
0.0
  0
VERTEX
  5
127
  8
0
 10
-77.9999999999999432
 20
-92.3938000000000557
 30
0.0
  0
VERTEX
  5
128
  8
0
 10
-75.0
 20
-92.3938000000000841
 30
0.0
  0
VERTEX
  5
129
  8
0
 10
-75.0
 20
-102.4522000000001043
 30
0.0
  0
VERTEX
  5
12A
  8
0
 10
-77.9999999999999432
 20
-102.4522000000001043
 30
0.0
  0
VERTEX
  5
12B
  8
0
 10
-77.9999999999999432
 20
-112.7391999999999967
 30
0.0
  0
VERTEX
  5
12C
  8
0
 10
-75.0
 20
-112.7391999999999967
 30
0.0
  0
VERTEX
  5
12D
  8
0
 10
-75.0
 20
-124.5999999999999943
 30
0.0
  0
VERTEX
  5
12E
  8
0
 10
-77.9999999999999432
 20
-124.5999999999999943
 30
0.0
  0
VERTEX
  5
12F
  8
0
 10
-77.9999999999999432
 20
-215.0
 30
0.0
  0
VERTEX
  5
130
  8
0
 10
-55.0
 20
-215.0
 30
0.0
  0
VERTEX
  5
131
  8
0
 10
-54.9999999999999574
 20
-220.0
 30
0.0
  0
VERTEX
  5
132
  8
0
 10
-24.5
 20
-220.0
 30
0.0
  0
VERTEX
  5
133
  8
0
 10
-24.5
 20
-232.5
 30
0.0
  0
VERTEX
  5
134
  8
0
 10
24.5
 20
-232.5
 30
0.0
  0
VERTEX
  5
135
  8
0
 10
24.5
 20
-220.0
 30
0.0
  0
VERTEX
  5
136
  8
0
 10
55.0000000000000071
 20
-220.0
 30
0.0
  0
VERTEX
  5
137
  8
0
 10
55.0
 20
-215.0
 30
0.0
  0
VERTEX
  5
138
  8
0
 10
77.9999999999999432
 20
-215.0
 30
0.0
  0
VERTEX
  5
139
  8
0
 10
77.9999999999999432
 20
-124.5999999999999943
 30
0.0
  0
VERTEX
  5
13A
  8
0
 10
75.0000000000000426
 20
-124.5999999999999943
 30
0.0
  0
VERTEX
  5
13B
  8
0
 10
75.0000000000000426
 20
-111.1236601569708995
 30
0.0
 42
0.4142135623730951
  0
VERTEX
  5
13C
  8
0
 10
74.0000000000000426
 20
-110.1236601569708995
 30
0.0
  0
SEQEND
  5
B9
  8
0
  0
POLYLINE
  5
13E
  8
0
 66
     1
 10
0.0
 20
0.0
 30
0.0
 70
     1
  0
VERTEX
  5
13F
  8
0
 10
46.6028222222236721
 20
60.517854917200431
 30
0.0
 42
-0.0524039345200342
  0
VERTEX
  5
140
  8
0
 10
39.7303534816620001
 20
54.8876287319179923
 30
0.0
 42
-0.1464469471326174
  0
VERTEX
  5
142
  8
0
 10
28.7422341961746817
 20
51.598739843029108
 30
0.0
  0
VERTEX
  5
143
  8
0
 10
4.0189658038282072
 20
51.598739843029108
 30
0.0
 42
-0.1464469471326172
  0
VERTEX
  5
144
  8
0
 10
-6.9691534816591041
 20
54.887628731917971
 30
0.0
 42
-0.0524039345200344
  0
VERTEX
  5
145
  8
0
 10
-13.8416222222207992
 20
60.517854917200431
 30
0.0
 42
-0.1974368241431835
  0
VERTEX
  5
146
  8
0
 10
-19.6193999999985813
 20
74.5794478234727478
 30
0.0
  0
VERTEX
  5
147
  8
0
 10
-19.6193999999985884
 20
106.2180318625854056
 30
0.0
 42
-0.1974368241431838
  0
VERTEX
  5
148
  8
0
 10
-13.8416222222208205
 20
120.2796247688578006
 30
0.0
 42
-0.0524039345200339
  0
VERTEX
  5
149
  8
0
 10
-6.9691534816591636
 20
125.9098509541401967
 30
0.0
 42
-0.1464469471326174
  0
VERTEX
  5
14A
  8
0
 10
4.0189658038281681
 20
129.1987398430291023
 30
0.0
  0
VERTEX
  5
14B
  8
0
 10
28.7422341961746604
 20
129.1987398430291023
 30
0.0
 42
-0.1464469471326174
  0
VERTEX
  5
14C
  8
0
 10
39.7303534816619788
 20
125.9098509541401967
 30
0.0
 42
-0.0524039345200342
  0
VERTEX
  5
14D
  8
0
 10
46.6028222222236792
 20
120.2796247688578006
 30
0.0
 42
-0.1974368241431836
  0
VERTEX
  5
14E
  8
0
 10
52.3806000000014222
 20
106.2180318625854056
 30
0.0
  0
VERTEX
  5
14F
  8
0
 10
52.3806000000014294
 20
74.5794478234727478
 30
0.0
 42
-0.197436824143184
  0
SEQEND
  5
141
  8
0
  0
POLYLINE
  5
150
  8
0
 66
     1
 10
0.0
 20
0.0
 30
0.0
 70
     1
  0
VERTEX
  5
151
  8
0
 10
46.6028222222236792
 20
143.5178549172005091
 30
0.0
 42
-0.0524039345200344
  0
VERTEX
  5
152
  8
0
 10
39.7303534816619575
 20
137.8876287319179141
 30
0.0
 42
-0.1464469471326172
  0
VERTEX
  5
154
  8
0
 10
28.7422341961746284
 20
134.598739843029108
 30
0.0
  0
VERTEX
  5
155
  8
0
 10
4.018965803828233
 20
134.598739843029108
 30
0.0
 42
-0.1464469471326166
  0
VERTEX
  5
156
  8
0
 10
-6.9691534816590543
 20
137.8876287319179141
 30
0.0
 42
-0.0524039345200354
  0
VERTEX
  5
157
  8
0
 10
-13.8416222222208507
 20
143.5178549172003954
 30
0.0
 42
-0.1974368241431833
  0
VERTEX
  5
158
  8
0
 10
-19.6193999999985991
 20
157.579447823472691
 30
0.0
  0
VERTEX
  5
159
  8
0
 10
-19.619399999998631
 20
189.2180318625854056
 30
0.0
 42
-0.1974368241431832
  0
VERTEX
  5
15A
  8
0
 10
-13.8416222222208791
 20
203.2796247688577012
 30
0.0
 42
-0.0524039345200351
  0
VERTEX
  5
15B
  8
0
 10
-6.969153481659089
 20
208.9098509541402962
 30
0.0
 42
-0.1464469471326165
  0
VERTEX
  5
15C
  8
0
 10
4.0189658038282063
 20
212.1987398430291876
 30
0.0
  0
VERTEX
  5
15D
  8
0
 10
28.7422341961745786
 20
212.1987398430291876
 30
0.0
 42
-0.1464469471326162
  0
VERTEX
  5
15E
  8
0
 10
39.7303534816618225
 20
208.9098509541404098
 30
0.0
 42
-0.0524039345200356
  0
VERTEX
  5
15F
  8
0
 10
46.6028222222237005
 20
203.2796247688577012
 30
0.0
 42
-0.197436824143183
  0
VERTEX
  5
160
  8
0
 10
52.3806000000014294
 20
189.2180318625854056
 30
0.0
  0
VERTEX
  5
161
  8
0
 10
52.3806000000014294
 20
157.579447823472691
 30
0.0
 42
-0.1974368241431835
  0
SEQEND
  5
153
  8
0
  0
POLYLINE
  5
162
  8
0
 66
     1
 10
0.0
 20
0.0
 30
0.0
 70
     1
  0
VERTEX
  5
163
  8
0
 10
-24.6193999999985991
 20
207.0635013144662082
 30
0.0
  0
VERTEX
  5
164
  8
0
 10
-24.61939999999856
 20
50.0635013144661585
 30
0.0
 42
-0.4142135623730951
  0
VERTEX
  5
166
  8
0
 10
-25.61939999999856
 20
49.0635013144661585
 30
0.0
  0
VERTEX
  5
167
  8
0
 10
-68.3193999999985522
 20
49.0635013144661585
 30
0.0
 42
-0.4142135623730951
  0
VERTEX
  5
168
  8
0
 10
-69.3193999999985522
 20
50.0635013144661585
 30
0.0
  0
VERTEX
  5
169
  8
0
 10
-69.319399999998609
 20
207.0635013144660945
 30
0.0
 42
-0.4142135623730951
  0
VERTEX
  5
16A
  8
0
 10
-68.3193999999985948
 20
208.0635013144660945
 30
0.0
  0
VERTEX
  5
16B
  8
0
 10
-25.6193999999985884
 20
208.0635013144662082
 30
0.0
 42
-0.4142135623730951
  0
SEQEND
  5
165
  8
0
  0
POLYLINE
  5
16C
  8
0
 66
     1
 10
0.0
 20
0.0
 30
0.0
 70
     1
  0
VERTEX
  5
16D
  8
0
 10
34.7396000000006282
 20
-81.3827000000000709
 30
0.0
  0
VERTEX
  5
16E
  8
0
 10
34.7396000000006211
 20
-91.2627000000000521
 30
0.0
 42
-0.4142135623730951
  0
VERTEX
  5
170
  8
0
 10
31.7396000000006211
 20
-94.2627000000000521
 30
0.0
  0
VERTEX
  5
171
  8
0
 10
-55.9403999999993502
 20
-94.2627000000000521
 30
0.0
 42
-0.4142135623730951
  0
VERTEX
  5
172
  8
0
 10
-58.9403999999993573
 20
-91.2627000000000521
 30
0.0
  0
VERTEX
  5
173
  8
0
 10
-58.9403999999993928
 20
-81.3827000000000851
 30
0.0
 42
-0.4142135623730951
  0
VERTEX
  5
174
  8
0
 10
-55.9403999999993928
 20
-78.3827000000000993
 30
0.0
  0
VERTEX
  5
175
  8
0
 10
31.7396000000006211
 20
-78.3827000000000567
 30
0.0
 42
-0.4142135623730951
  0
SEQEND
  5
16F
  8
0
  0
POLYLINE
  5
176
  8
0
 66
     1
 10
0.0
 20
0.0
 30
0.0
 70
     1
  0
VERTEX
  5
177
  8
0
 10
34.7396000000006282
 20
-40.6919000000000466
 30
0.0
  0
VERTEX
  5
178
  8
0
 10
34.7396000000006282
 20
-50.5719000000000491
 30
0.0
 42
-0.4142135623730951
  0
VERTEX
  5
17A
  8
0
 10
31.7396000000006211
 20
-53.5719000000000634
 30
0.0
  0
VERTEX
  5
17B
  8
0
 10
-55.9403999999993502
 20
-53.5719000000000634
 30
0.0
 42
-0.4142135623730951
  0
VERTEX
  5
17C
  8
0
 10
-58.9403999999993573
 20
-50.5719000000000491
 30
0.0
  0
VERTEX
  5
17D
  8
0
 10
-58.9403999999993928
 20
-40.6919000000000466
 30
0.0
 42
-0.4142135623730951
  0
VERTEX
  5
17E
  8
0
 10
-55.9403999999993928
 20
-37.6919000000000466
 30
0.0
  0
VERTEX
  5
17F
  8
0
 10
31.7396000000006211
 20
-37.6919000000000466
 30
0.0
 42
-0.4142135623730951
  0
SEQEND
  5
179
  8
0
  0
POLYLINE
  5
180
  8
0
 66
     1
 10
0.0
 20
0.0
 30
0.0
 70
     1
  0
VERTEX
  5
181
  8
0
 10
34.7396000000006211
 20
-0.0011000000000277
 30
0.0
  0
VERTEX
  5
182
  8
0
 10
34.7396000000006282
 20
-9.8811000000000355
 30
0.0
 42
-0.4142135623730957
  0
VERTEX
  5
184
  8
0
 10
31.7396000000006211
 20
-12.8811000000000409
 30
0.0
  0
VERTEX
  5
185
  8
0
 10
-55.9403999999993502
 20
-12.8811000000000409
 30
0.0
 42
-0.4142135623730949
  0
VERTEX
  5
186
  8
0
 10
-58.9403999999993573
 20
-9.8811000000000426
 30
0.0
  0
VERTEX
  5
187
  8
0
 10
-58.9403999999993928
 20
-0.0011000000000438
 30
0.0
 42
-0.4142135623730955
  0
VERTEX
  5
188
  8
0
 10
-55.9403999999993928
 20
2.998899999999959
 30
0.0
  0
VERTEX
  5
189
  8
0
 10
31.7396000000006211
 20
2.9988999999999679
 30
0.0
 42
-0.4142135623730947
  0
SEQEND
  5
183
  8
0
  0
POLYLINE
  5
18A
  8
0
 66
     1
 10
0.0
 20
0.0
 30
0.0
 70
     1
  0
VERTEX
  5
18B
  8
0
 10
34.7396000000006282
 20
40.6896999999999878
 30
0.0
  0
VERTEX
  5
18C
  8
0
 10
34.7396000000006282
 20
30.809699999999971
 30
0.0
 42
-0.4142135623730955
  0
VERTEX
  5
18E
  8
0
 10
31.7396000000006211
 20
27.809699999999971
 30
0.0
  0
VERTEX
  5
18F
  8
0
 10
-55.9403999999993502
 20
27.809699999999971
 30
0.0
 42
-0.4142135623730947
  0
VERTEX
  5
190
  8
0
 10
-58.9403999999993573
 20
30.809699999999971
 30
0.0
  0
VERTEX
  5
191
  8
0
 10
-58.9403999999993715
 20
40.6896999999999665
 30
0.0
 42
-0.4142135623730951
  0
VERTEX
  5
192
  8
0
 10
-55.9403999999993928
 20
43.6896999999999665
 30
0.0
  0
VERTEX
  5
193
  8
0
 10
31.7396000000006211
 20
43.6896999999999807
 30
0.0
 42
-0.4142135623730951
  0
SEQEND
  5
18D
  8
0
  0
POLYLINE
  5
194
  8
0
 66
     1
 10
0.0
 20
0.0
 30
0.0
 70
     1
  0
VERTEX
  5
195
  8
0
 10
34.7396000000006282
 20
20.3442999999999792
 30
0.0
  0
VERTEX
  5
196
  8
0
 10
34.7396000000006211
 20
10.4642999999999695
 30
0.0
 42
-0.4142135623730955
  0
VERTEX
  5
198
  8
0
 10
31.7396000000006211
 20
7.4642999999999669
 30
0.0
  0
VERTEX
  5
199
  8
0
 10
-55.9403999999993502
 20
7.4642999999999651
 30
0.0
 42
-0.4142135623730947
  0
VERTEX
  5
19A
  8
0
 10
-58.9403999999993573
 20
10.4642999999999606
 30
0.0
  0
VERTEX
  5
19B
  8
0
 10
-58.9403999999993928
 20
20.3442999999999614
 30
0.0
 42
-0.4142135623730955
  0
VERTEX
  5
19C
  8
0
 10
-55.9403999999993928
 20
23.3442999999999685
 30
0.0
  0
VERTEX
  5
19D
  8
0
 10
31.7396000000006211
 20
23.3442999999999685
 30
0.0
 42
-0.4142135623730947
  0
SEQEND
  5
197
  8
0
  0
POLYLINE
  5
19E
  8
0
 66
     1
 10
0.0
 20
0.0
 30
0.0
 70
     1
  0
VERTEX
  5
19F
  8
0
 10
34.7396000000006282
 20
-20.3465000000000309
 30
0.0
  0
VERTEX
  5
1A0
  8
0
 10
34.7396000000006282
 20
-30.2265000000000406
 30
0.0
 42
-0.4142135623730955
  0
VERTEX
  5
1A2
  8
0
 10
31.7396000000006211
 20
-33.2265000000000512
 30
0.0
  0
VERTEX
  5
1A3
  8
0
 10
-55.9403999999993502
 20
-33.2265000000000512
 30
0.0
 42
-0.4142135623730947
  0
VERTEX
  5
1A4
  8
0
 10
-58.9403999999993573
 20
-30.2265000000000583
 30
0.0
  0
VERTEX
  5
1A5
  8
0
 10
-58.9403999999993928
 20
-20.3465000000000487
 30
0.0
 42
-0.4142135623730955
  0
VERTEX
  5
1A6
  8
0
 10
-55.9403999999993928
 20
-17.3465000000000416
 30
0.0
  0
VERTEX
  5
1A7
  8
0
 10
31.7396000000006211
 20
-17.3465000000000309
 30
0.0
 42
-0.4142135623730947
  0
SEQEND
  5
1A1
  8
0
  0
POLYLINE
  5
1A8
  8
0
 66
     1
 10
0.0
 20
0.0
 30
0.0
 70
     1
  0
VERTEX
  5
1A9
  8
0
 10
34.7396000000006282
 20
-61.0373000000000516
 30
0.0
  0
VERTEX
  5
1AA
  8
0
 10
34.7396000000006282
 20
-70.9173000000000684
 30
0.0
 42
-0.4142135623730951
  0
VERTEX
  5
1AC
  8
0
 10
31.7396000000006211
 20
-73.9173000000000684
 30
0.0
  0
VERTEX
  5
1AD
  8
0
 10
-55.9403999999993502
 20
-73.9173000000000684
 30
0.0
 42
-0.4142135623730951
  0
VERTEX
  5
1AE
  8
0
 10
-58.9403999999993573
 20
-70.9173000000000684
 30
0.0
  0
VERTEX
  5
1AF
  8
0
 10
-58.9403999999993715
 20
-61.0373000000000516
 30
0.0
 42
-0.4142135623730951
  0
VERTEX
  5
1B0
  8
0
 10
-55.9403999999993928
 20
-58.0373000000000587
 30
0.0
  0
VERTEX
  5
1B1
  8
0
 10
31.7396000000006211
 20
-58.0373000000000516
 30
0.0
 42
-0.4142135623730951
  0
SEQEND
  5
1AB
  8
0
  0
POLYLINE
  5
1B2
  8
0
 66
     1
 10
0.0
 20
0.0
 30
0.0
 70
     1
  0
VERTEX
  5
1B3
  8
0
 10
34.7396000000006211
 20
-101.7280999999999977
 30
0.0
  0
VERTEX
  5
1B4
  8
0
 10
34.7396000000006282
 20
-111.6080999999999932
 30
0.0
 42
-0.4142135623730951
  0
VERTEX
  5
1B6
  8
0
 10
31.7396000000006211
 20
-114.6080999999999932
 30
0.0
  0
VERTEX
  5
1B7
  8
0
 10
-55.9403999999993502
 20
-114.6080999999999932
 30
0.0
 42
-0.4142135623730951
  0
VERTEX
  5
1B8
  8
0
 10
-58.9403999999993573
 20
-111.6080999999999932
 30
0.0
  0
VERTEX
  5
1B9
  8
0
 10
-58.9403999999993715
 20
-101.7281000000000972
 30
0.0
 42
-0.4142135623730951
  0
VERTEX
  5
1BA
  8
0
 10
-55.9403999999993928
 20
-98.728100000000083
 30
0.0
  0
VERTEX
  5
1BB
  8
0
 10
31.7396000000006211
 20
-98.728100000000083
 30
0.0
 42
-0.4142135623730951
  0
SEQEND
  5
1B5
  8
0
  0
POLYLINE
  5
1BC
  8
0
 66
     1
 10
0.0
 20
0.0
 30
0.0
 70
     1
  0
VERTEX
  5
1BD
  8
0
 10
45.7500000000003695
 20
-209.4000000000000909
 30
0.0
 42
-0.9999999999999998
  0
VERTEX
  5
1BE
  8
0
 10
42.2500000000003695
 20
-209.4000000000000909
 30
0.0
  0
VERTEX
  5
1C0
  8
0
 10
42.2500000000003695
 20
-206.4000000000000909
 30
0.0
 42
-0.9999999999999998
  0
VERTEX
  5
1C1
  8
0
 10
45.7500000000003695
 20
-206.4000000000000909
 30
0.0
  0
SEQEND
  5
1BF
  8
0
  0
POLYLINE
  5
1C2
  8
0
 66
     1
 10
0.0
 20
0.0
 30
0.0
 70
     1
  0
VERTEX
  5
1C3
  8
0
 10
71.7500000000002132
 20
-145.1999999999999886
 30
0.0
 42
-0.9999999999999998
  0
VERTEX
  5
1C4
  8
0
 10
68.2500000000002274
 20
-145.1999999999999886
 30
0.0
  0
VERTEX
  5
1C6
  8
0
 10
68.2500000000002274
 20
-142.1999999999999886
 30
0.0
 42
-0.9999999999999998
  0
VERTEX
  5
1C7
  8
0
 10
71.7500000000004832
 20
-142.1999999999999886
 30
0.0
  0
SEQEND
  5
1C5
  8
0
  0
POLYLINE
  5
1C8
  8
0
 66
     1
 10
0.0
 20
0.0
 30
0.0
 70
     1
  0
VERTEX
  5
1C9
  8
0
 10
-66.24999999999973
 20
-209.2000000000001023
 30
0.0
 42
-0.9999999999999998
  0
VERTEX
  5
1CA
  8
0
 10
-69.7499999999997158
 20
-209.2000000000001023
 30
0.0
  0
VERTEX
  5
1CC
  8
0
 10
-69.7499999999997158
 20
-206.1999999999999886
 30
0.0
 42
-0.9999999999999998
  0
VERTEX
  5
1CD
  8
0
 10
-66.2499999999994884
 20
-206.1999999999999886
 30
0.0
  0
SEQEND
  5
1CB
  8
0
  0
POLYLINE
  5
1CE
  8
0
 66
     1
 10
0.0
 20
0.0
 30
0.0
 70
     1
  0
VERTEX
  5
1CF
  8
0
 10
-68.2499999999996163
 20
-135.3999999999996078
 30
0.0
 42
-0.9999999999999998
  0
VERTEX
  5
1D0
  8
0
 10
-71.7499999999996163
 20
-135.3999999999996078
 30
0.0
  0
VERTEX
  5
1D2
  8
0
 10
-71.7499999999996163
 20
-132.3999999999996078
 30
0.0
 42
-0.9999999999999998
  0
VERTEX
  5
1D3
  8
0
 10
-68.2499999999996163
 20
-132.3999999999996078
 30
0.0
  0
SEQEND
  5
1D1
  8
0
  0
POLYLINE
  5
1D4
  8
0
 66
     1
 10
0.0
 20
0.0
 30
0.0
 70
     1
  0
VERTEX
  5
1D5
  8
0
 10
-42.2499999999997584
 20
-135.1999999999999886
 30
0.0
 42
-0.9999999999999998
  0
VERTEX
  5
1D6
  8
0
 10
-45.7499999999997584
 20
-135.1999999999999886
 30
0.0
  0
VERTEX
  5
1D8
  8
0
 10
-45.749999999999531
 20
-132.1999999999999886
 30
0.0
 42
-0.9999999999999998
  0
VERTEX
  5
1D9
  8
0
 10
-42.2499999999995026
 20
-132.1999999999999886
 30
0.0
  0
SEQEND
  5
1D7
  8
0
  0
POLYLINE
  5
1DA
  8
0
 66
     1
 10
0.0
 20
0.0
 30
0.0
 70
     1
  0
VERTEX
  5
1DB
  8
0
 10
69.7500000000003411
 20
-135.4000000000000057
 30
0.0
 42
-0.9999999999999998
  0
VERTEX
  5
1DC
  8
0
 10
66.2500000000003411
 20
-135.4000000000000057
 30
0.0
  0
VERTEX
  5
1DE
  8
0
 10
66.2500000000003411
 20
-132.4000000000000057
 30
0.0
 42
-0.9999999999999998
  0
VERTEX
  5
1DF
  8
0
 10
69.7500000000003411
 20
-132.4000000000000057
 30
0.0
  0
SEQEND
  5
1DD
  8
0
  0
POLYLINE
  5
1E0
  8
0
 66
     1
 10
0.0
 20
0.0
 30
0.0
 70
     1
  0
VERTEX
  5
1E1
  8
0
 10
71.7500000000002416
 20
-209.2000000000005002
 30
0.0
 42
-0.9999999999999998
  0
VERTEX
  5
1E2
  8
0
 10
68.2500000000002558
 20
-209.2000000000005002
 30
0.0
  0
VERTEX
  5
1E4
  8
0
 10
68.2500000000002558
 20
-206.2000000000005002
 30
0.0
 42
-0.9999999999999998
  0
VERTEX
  5
1E5
  8
0
 10
71.7500000000004832
 20
-206.2000000000005002
 30
0.0
  0
SEQEND
  5
1E3
  8
0
  0
POLYLINE
  5
1E6
  8
0
 66
     1
 10
0.0
 20
0.0
 30
0.0
 70
     1
  0
VERTEX
  5
1E7
  8
0
 10
-67.9999999999997158
 20
-199.4000000000000909
 30
0.0
 42
-0.9999999999999998
  0
VERTEX
  5
1E8
  8
0
 10
-71.9999999999994884
 20
-199.4000000000000909
 30
0.0
  0
VERTEX
  5
1EA
  8
0
 10
-71.9999999999994884
 20
-196.4000000000000909
 30
0.0
 42
-0.9999999999999998
  0
VERTEX
  5
1EB
  8
0
 10
-67.9999999999997158
 20
-196.4000000000000909
 30
0.0
  0
SEQEND
  5
1E9
  8
0
  0
POLYLINE
  5
1EC
  8
0
 66
     1
 10
0.0
 20
0.0
 30
0.0
 70
     1
  0
VERTEX
  5
1ED
  8
0
 10
39.9990908339473705
 20
-202.4000000000000057
 30
0.0
 42
0.2982166266986027
  0
VERTEX
  5
1EE
  8
0
 10
37.2495454169738807
 20
-204.1999999999999886
 30
0.0
 42
-0.2982166266986061
  0
VERTEX
  5
1F0
  8
0
 10
34.5000000000003766
 20
-206.0
 30
0.0
  0
VERTEX
  5
1F1
  8
0
 10
-58.4999999999994813
 20
-206.0000000000001137
 30
0.0
 42
-0.4142135623730951
  0
VERTEX
  5
1F2
  8
0
 10
-61.4999999999994671
 20
-203.0000000000001137
 30
0.0
  0
VERTEX
  5
1F3
  8
0
 10
-61.4999999999994813
 20
-192.9000000000000909
 30
0.0
 42
0.4142135623730951
  0
VERTEX
  5
1F4
  8
0
 10
-64.4999999999994884
 20
-189.9000000000000909
 30
0.0
  0
VERTEX
  5
1F5
  8
0
 10
-65.9999999999996447
 20
-189.9000000000000909
 30
0.0
 42
-0.4142135623730951
  0
VERTEX
  5
1F6
  8
0
 10
-68.9999999999996447
 20
-186.9000000000000909
 30
0.0
  0
VERTEX
  5
1F7
  8
0
 10
-68.9999999999997016
 20
-142.3999999999994941
 30
0.0
 42
-0.4142135623730951
  0
VERTEX
  5
1F8
  8
0
 10
-65.9999999999997158
 20
-139.3999999999996078
 30
0.0
  0
VERTEX
  5
1F9
  8
0
 10
-40.4999999999997584
 20
-139.3999999999996078
 30
0.0
 42
0.4142135623730951
  0
VERTEX
  5
1FA
  8
0
 10
-37.4999999999997726
 20
-136.3999999999996078
 30
0.0
  0
VERTEX
  5
1FB
  8
0
 10
-37.4999999999997584
 20
-135.5999999999999943
 30
0.0
 42
-0.4142135623730951
  0
VERTEX
  5
1FC
  8
0
 10
-34.4999999999997584
 20
-132.5999999999999943
 30
0.0
  0
VERTEX
  5
1FD
  8
0
 10
58.5000000000003624
 20
-132.5999999999999943
 30
0.0
 42
-0.4142135623730951
  0
VERTEX
  5
1FE
  8
0
 10
61.5000000000003411
 20
-135.5999999999999943
 30
0.0
  0
VERTEX
  5
1FF
  8
0
 10
61.5000000000003411
 20
-148.6999999999999886
 30
0.0
 42
0.4142135623730934
  0
VERTEX
  5
200
  8
0
 10
64.5000000000003411
 20
-151.6999999999999886
 30
0.0
  0
VERTEX
  5
201
  8
0
 10
66.0000000000003126
 20
-151.6999999999999886
 30
0.0
 42
-0.4142135623730951
  0
VERTEX
  5
202
  8
0
 10
69.0000000000003126
 20
-154.6999999999999886
 30
0.0
  0
VERTEX
  5
203
  8
0
 10
69.0000000000003268
 20
-199.4000000000000057
 30
0.0
 42
-0.4142135623730951
  0
VERTEX
  5
204
  8
0
 10
66.0000000000003268
 20
-202.4000000000000057
 30
0.0
  0
SEQEND
  5
1EF
  8
0
  0
CIRCLE
  5
205
  8
0
 10
52.130600000001408
 20
137.6487398430290909
 30
0.0
 40
1.1999999999999991
  0
CIRCLE
  5
206
  8
0
 10
-19.3693999999985991
 20
209.1487398430290909
 30
0.0
 40
1.1999999999999991
  0
CIRCLE
  5
207
  8
0
 10
-19.3693999999985706
 20
54.6487398430290909
 30
0.0
 40
1.1999999999999991
  0
CIRCLE
  5
208
  8
0
 10
-19.3693999999985813
 20
126.1487398430291051
 30
0.0
 40
1.1999999999999991
  0
CIRCLE
  5
209
  8
0
 10
52.1306000000014222
 20
126.1487398430291051
 30
0.0
 40
1.1999999999999991
  0
CIRCLE
  5
20A
  8
0
 10
52.1306000000014365
 20
54.6487398430291123
 30
0.0
 40
1.1999999999999991
  0
CIRCLE
  5
20B
  8
0
 10
52.1306000000014009
 20
209.1487398430290909
 30
0.0
 40
1.1999999999999991
  0
CIRCLE
  5
20C
  8
0
 10
-19.3693999999985884
 20
137.6487398430290909
 30
0.0
 40
1.1999999999999991
  0
CIRCLE
  5
20D
  8
0
 10
16.9999999999999893
 20
-225.0
 30
0.0
 40
2.25
  0
CIRCLE
  5
20E
  8
0
 10
-16.9999999999999893
 20
225.0
 30
0.0
 40
2.25
  0
CIRCLE
  5
20F
  8
0
 10
65.0000000000000142
 20
131.8987398430290909
 30
0.0
 40
2.25
  0
CIRCLE
  5
210
  8
0
 10
65.0000000000000142
 20
58.3987398430291123
 30
0.0
 40
2.25
  0
CIRCLE
  5
211
  8
0
 10
17.0
 20
225.0
 30
0.0
 40
2.25
  0
CIRCLE
  5
212
  8
0
 10
65.0
 20
174.5
 30
0.0
 40
2.25
  0
CIRCLE
  5
213
  8
0
 10
-16.9999999999999893
 20
-225.0
 30
0.0
 40
2.25
  0
CIRCLE
  5
214
  8
0
 10
65.0000000000000426
 20
-117.6236601569708995
 30
0.0
 40
2.25
  0
ENDSEC
  0
EOF
